<svg xmlns="http://www.w3.org/2000/svg" xmlns:xlink="http://www.w3.org/1999/xlink" width="500" zoomAndPan="magnify" viewBox="0 0 375 374.999991" height="500" preserveAspectRatio="xMidYMid meet" version="1.0"><defs><g/><clipPath id="eb5563fbad"><path d="M 157.488281 119.277344 L 221.988281 119.277344 L 221.988281 183.777344 L 157.488281 183.777344 Z M 157.488281 119.277344 " clip-rule="nonzero"/></clipPath><clipPath id="18bc897c46"><path d="M 189.808594 119.277344 C 171.957031 119.277344 157.488281 133.746094 157.488281 151.597656 C 157.488281 169.449219 171.957031 183.917969 189.808594 183.917969 C 207.65625 183.917969 222.128906 169.449219 222.128906 151.597656 C 222.128906 133.746094 207.65625 119.277344 189.808594 119.277344 Z M 189.808594 119.277344 " clip-rule="nonzero"/></clipPath><clipPath id="ccd8603cde"><path d="M 172.117188 133.90625 L 207.367188 133.90625 L 207.367188 169.15625 L 172.117188 169.15625 Z M 172.117188 133.90625 " clip-rule="nonzero"/></clipPath><clipPath id="fe9c5d1317"><path d="M 189.804688 133.90625 C 180.035156 133.90625 172.117188 141.824219 172.117188 151.59375 C 172.117188 161.363281 180.035156 169.285156 189.804688 169.285156 C 199.574219 169.285156 207.496094 161.363281 207.496094 151.59375 C 207.496094 141.824219 199.574219 133.90625 189.804688 133.90625 Z M 189.804688 133.90625 " clip-rule="nonzero"/></clipPath><clipPath id="054e6eb264"><path d="M 122.867188 119.277344 L 142.929688 119.277344 L 142.929688 139.339844 L 122.867188 139.339844 Z M 122.867188 119.277344 " clip-rule="nonzero"/></clipPath><clipPath id="0738207fa2"><path d="M 132.898438 119.277344 C 127.359375 119.277344 122.867188 123.769531 122.867188 129.308594 C 122.867188 134.847656 127.359375 139.339844 132.898438 139.339844 C 138.4375 139.339844 142.929688 134.847656 142.929688 129.308594 C 142.929688 123.769531 138.4375 119.277344 132.898438 119.277344 Z M 132.898438 119.277344 " clip-rule="nonzero"/></clipPath></defs><g clip-path="url(#eb5563fbad)"><g clip-path="url(#18bc897c46)"><path stroke-linecap="butt" transform="matrix(0.75, 0, 0, 0.75, 157.487836, 119.277311)" fill="none" stroke-linejoin="miter" d="M 43.094347 0.0000431767 C 19.292262 0.0000431767 0.000593989 19.291711 0.000593989 43.093796 C 0.000593989 66.895881 19.292262 86.187549 43.094347 86.187549 C 66.891223 86.187549 86.1881 66.895881 86.1881 43.093796 C 86.1881 19.291711 66.891223 0.0000431767 43.094347 0.0000431767 Z M 43.094347 0.0000431767 " stroke="#000000" stroke-width="4" stroke-opacity="1" stroke-miterlimit="4"/></g></g><g clip-path="url(#ccd8603cde)"><g clip-path="url(#fe9c5d1317)"><path stroke-linecap="butt" transform="matrix(0.75, 0, 0, 0.75, 172.11644, 133.905884)" fill="none" stroke-linejoin="miter" d="M 23.584332 0.000487991 C 10.55829 0.000487991 0.000997203 10.55778 0.000997203 23.583823 C 0.000997203 36.609865 10.55829 47.172366 23.584332 47.172366 C 36.610375 47.172366 47.172875 36.609865 47.172875 23.583823 C 47.172875 10.55778 36.610375 0.000487991 23.584332 0.000487991 Z M 23.584332 0.000487991 " stroke="#000000" stroke-width="4" stroke-opacity="1" stroke-miterlimit="4"/></g></g><g clip-path="url(#054e6eb264)"><g clip-path="url(#0738207fa2)"><path stroke-linecap="butt" transform="matrix(0.75, 0, 0, 0.75, 122.867809, 119.277311)" fill="none" stroke-linejoin="miter" d="M 13.374172 0.0000431767 C 5.988755 0.0000431767 -0.000828976 5.989627 -0.000828976 13.375044 C -0.000828976 20.760461 5.988755 26.750045 13.374172 26.750045 C 20.759589 26.750045 26.749173 20.760461 26.749173 13.375044 C 26.749173 5.989627 20.759589 0.0000431767 13.374172 0.0000431767 Z M 13.374172 0.0000431767 " stroke="#000000" stroke-width="4" stroke-opacity="1" stroke-miterlimit="4"/></g></g><path stroke-linecap="round" transform="matrix(0, 0.75, -0.75, 0, 133.652031, 137.936871)" fill="none" stroke-linejoin="miter" d="M 1.000839 0.999583 L 60.313343 0.999583 " stroke="#000000" stroke-width="2" stroke-opacity="1" stroke-miterlimit="4"/><path stroke-linecap="round" transform="matrix(0, 0.75, -0.75, 0, 238.628806, 119.28071)" fill="none" stroke-linejoin="miter" d="M 1.00072 0.999867 L 25.761139 0.999867 " stroke="#000000" stroke-width="2" stroke-opacity="1" stroke-miterlimit="4"/><path stroke-linecap="round" transform="matrix(0, 0.75, -0.75, 0, 245.380316, 119.279171)" fill="none" stroke-linejoin="miter" d="M 0.997563 1.001879 L 85.190277 1.001879 " stroke="#000000" stroke-width="2" stroke-opacity="1" stroke-miterlimit="4"/><path stroke-linecap="round" transform="matrix(0, 0.75, -0.75, 0, 252.128806, 119.28071)" fill="none" stroke-linejoin="miter" d="M 1.00072 0.999866 L 25.761139 0.999866 " stroke="#000000" stroke-width="2" stroke-opacity="1" stroke-miterlimit="4"/><path stroke-linecap="butt" transform="matrix(0.75, 0, 0, 0.75, 237.132191, 137.846593)" fill="none" stroke-linejoin="miter" d="M 0.000829296 1.001418 L 20.000831 1.001418 " stroke="#000000" stroke-width="2" stroke-opacity="1" stroke-miterlimit="4"/><g fill="#000000" fill-opacity="1"><g transform="translate(141.006089, 223.305849)"><g><path d="M 1.6875 0 L 1.6875 -15.40625 L 8.296875 -15.40625 C 9.785156 -15.40625 10.992188 -14.992188 11.921875 -14.171875 C 12.847656 -13.359375 13.3125 -12.296875 13.3125 -10.984375 C 13.3125 -9.960938 13.015625 -9.085938 12.421875 -8.359375 C 11.828125 -7.628906 11.03125 -7.125 10.03125 -6.84375 L 13.484375 0 L 11.609375 0 L 8.3125 -6.625 L 3.390625 -6.625 L 3.390625 0 Z M 8.1875 -13.875 L 3.390625 -13.875 L 3.390625 -8.046875 L 8.1875 -8.046875 C 9.207031 -8.046875 10.03125 -8.3125 10.65625 -8.84375 C 11.289062 -9.382812 11.609375 -10.097656 11.609375 -10.984375 C 11.609375 -11.859375 11.289062 -12.554688 10.65625 -13.078125 C 10.03125 -13.609375 9.207031 -13.875 8.1875 -13.875 Z M 8.1875 -13.875 "/></g></g></g><g fill="#000000" fill-opacity="1"><g transform="translate(158.493553, 223.305849)"><g><path d="M 1.6875 0 L 1.6875 -15.40625 L 12.71875 -15.40625 L 12.71875 -13.90625 L 3.390625 -13.90625 L 3.390625 -8.515625 L 9.484375 -8.515625 L 9.484375 -7.046875 L 3.390625 -7.046875 L 3.390625 -1.5 L 12.796875 -1.5 L 12.796875 0 Z M 1.6875 0 "/></g></g></g><g fill="#000000" fill-opacity="1"><g transform="translate(175.343135, 223.305849)"><g><path d="M 9 -1.3125 C 9.945312 -1.3125 10.851562 -1.5 11.71875 -1.875 C 12.59375 -2.25 13.320312 -2.769531 13.90625 -3.4375 L 15 -2.28125 C 14.238281 -1.488281 13.328125 -0.867188 12.265625 -0.421875 C 11.210938 0.015625 10.109375 0.234375 8.953125 0.234375 C 7.835938 0.234375 6.789062 0.03125 5.8125 -0.375 C 4.84375 -0.78125 4 -1.335938 3.28125 -2.046875 C 2.5625 -2.765625 1.992188 -3.609375 1.578125 -4.578125 C 1.171875 -5.554688 0.96875 -6.597656 0.96875 -7.703125 C 0.96875 -8.796875 1.171875 -9.832031 1.578125 -10.8125 C 1.992188 -11.789062 2.5625 -12.632812 3.28125 -13.34375 C 4 -14.050781 4.84375 -14.609375 5.8125 -15.015625 C 6.789062 -15.429688 7.835938 -15.640625 8.953125 -15.640625 C 10.140625 -15.640625 11.265625 -15.414062 12.328125 -14.96875 C 13.390625 -14.519531 14.296875 -13.898438 15.046875 -13.109375 L 13.921875 -11.921875 C 13.328125 -12.597656 12.582031 -13.125 11.6875 -13.5 C 10.800781 -13.882812 9.890625 -14.078125 8.953125 -14.078125 C 8.078125 -14.078125 7.253906 -13.910156 6.484375 -13.578125 C 5.710938 -13.253906 5.046875 -12.804688 4.484375 -12.234375 C 3.929688 -11.671875 3.492188 -11 3.171875 -10.21875 C 2.847656 -9.4375 2.6875 -8.597656 2.6875 -7.703125 C 2.6875 -6.804688 2.847656 -5.960938 3.171875 -5.171875 C 3.492188 -4.390625 3.9375 -3.71875 4.5 -3.15625 C 5.0625 -2.59375 5.726562 -2.144531 6.5 -1.8125 C 7.269531 -1.476562 8.101562 -1.3125 9 -1.3125 Z M 9 -1.3125 "/></g></g></g><g fill="#000000" fill-opacity="1"><g transform="translate(194.524301, 223.305849)"><g><path d="M 1.6875 0 L 1.6875 -15.40625 L 3.390625 -15.40625 L 3.390625 0 Z M 1.6875 0 "/></g></g></g><g fill="#000000" fill-opacity="1"><g transform="translate(202.905392, 223.305849)"><g><path d="M 1.6875 0 L 1.6875 -15.40625 L 8.375 -15.40625 C 9.875 -15.40625 11.078125 -14.992188 11.984375 -14.171875 C 12.898438 -13.359375 13.359375 -12.285156 13.359375 -10.953125 C 13.359375 -9.617188 12.898438 -8.539062 11.984375 -7.71875 C 11.066406 -6.894531 9.863281 -6.484375 8.375 -6.484375 L 3.390625 -6.484375 L 3.390625 0 Z M 8.25 -13.875 L 3.390625 -13.875 L 3.390625 -7.96875 L 8.25 -7.96875 C 9.289062 -7.96875 10.117188 -8.234375 10.734375 -8.765625 C 11.347656 -9.296875 11.65625 -10.019531 11.65625 -10.9375 C 11.65625 -11.84375 11.347656 -12.554688 10.734375 -13.078125 C 10.117188 -13.609375 9.289062 -13.875 8.25 -13.875 Z M 8.25 -13.875 "/></g></g></g><g fill="#000000" fill-opacity="1"><g transform="translate(220.436847, 223.305849)"><g><path d="M 1.6875 0 L 1.6875 -15.40625 L 12.71875 -15.40625 L 12.71875 -13.90625 L 3.390625 -13.90625 L 3.390625 -8.515625 L 9.484375 -8.515625 L 9.484375 -7.046875 L 3.390625 -7.046875 L 3.390625 -1.5 L 12.796875 -1.5 L 12.796875 0 Z M 1.6875 0 "/></g></g></g><g fill="#000000" fill-opacity="1"><g transform="translate(145.470918, 242.182352)"><g><path d="M 4.90625 -0.71875 C 5.425781 -0.71875 5.921875 -0.816406 6.390625 -1.015625 C 6.867188 -1.222656 7.265625 -1.507812 7.578125 -1.875 L 8.1875 -1.25 C 7.769531 -0.8125 7.269531 -0.472656 6.6875 -0.234375 C 6.113281 0.00390625 5.515625 0.125 4.890625 0.125 C 4.273438 0.125 3.703125 0.015625 3.171875 -0.203125 C 2.640625 -0.429688 2.175781 -0.738281 1.78125 -1.125 C 1.394531 -1.507812 1.085938 -1.96875 0.859375 -2.5 C 0.640625 -3.03125 0.53125 -3.597656 0.53125 -4.203125 C 0.53125 -4.796875 0.640625 -5.359375 0.859375 -5.890625 C 1.085938 -6.429688 1.394531 -6.894531 1.78125 -7.28125 C 2.175781 -7.664062 2.640625 -7.96875 3.171875 -8.1875 C 3.703125 -8.414062 4.273438 -8.53125 4.890625 -8.53125 C 5.535156 -8.53125 6.144531 -8.40625 6.71875 -8.15625 C 7.300781 -7.914062 7.796875 -7.582031 8.203125 -7.15625 L 7.59375 -6.5 C 7.269531 -6.875 6.863281 -7.164062 6.375 -7.375 C 5.894531 -7.582031 5.398438 -7.6875 4.890625 -7.6875 C 4.398438 -7.6875 3.945312 -7.59375 3.53125 -7.40625 C 3.113281 -7.226562 2.75 -6.984375 2.4375 -6.671875 C 2.132812 -6.367188 1.894531 -6.003906 1.71875 -5.578125 C 1.550781 -5.148438 1.46875 -4.691406 1.46875 -4.203125 C 1.46875 -3.710938 1.550781 -3.253906 1.71875 -2.828125 C 1.894531 -2.398438 2.140625 -2.03125 2.453125 -1.71875 C 2.765625 -1.414062 3.128906 -1.171875 3.546875 -0.984375 C 3.960938 -0.804688 4.414062 -0.71875 4.90625 -0.71875 Z M 4.90625 -0.71875 "/></g></g></g><g fill="#000000" fill-opacity="1"><g transform="translate(158.926385, 242.182352)"><g><path d="M 0.921875 0 L 0.921875 -8.40625 L 6.9375 -8.40625 L 6.9375 -7.578125 L 1.84375 -7.578125 L 1.84375 -4.640625 L 5.171875 -4.640625 L 5.171875 -3.84375 L 1.84375 -3.84375 L 1.84375 -0.8125 L 6.984375 -0.8125 L 6.984375 0 Z M 0.921875 0 "/></g></g></g><g fill="#000000" fill-opacity="1"><g transform="translate(171.111101, 242.182352)"><g><path d="M 0.921875 -8.40625 L 1.84375 -8.40625 L 6.90625 -1.578125 L 6.90625 -8.40625 L 7.78125 -8.40625 L 7.78125 0 L 6.953125 0 L 1.796875 -7 L 1.796875 0 L 0.921875 0 Z M 0.921875 -8.40625 "/></g></g></g><g fill="#000000" fill-opacity="1"><g transform="translate(184.602525, 242.182352)"><g><path d="M 0.203125 -7.578125 L 0.203125 -8.40625 L 7.203125 -8.40625 L 7.203125 -7.578125 L 4.15625 -7.578125 L 4.15625 0 L 3.234375 0 L 3.234375 -7.578125 Z M 0.203125 -7.578125 "/></g></g></g><g fill="#000000" fill-opacity="1"><g transform="translate(196.799223, 242.182352)"><g><path d="M 0.921875 0 L 0.921875 -8.40625 L 4.53125 -8.40625 C 5.34375 -8.40625 6 -8.179688 6.5 -7.734375 C 7.007812 -7.285156 7.265625 -6.703125 7.265625 -5.984375 C 7.265625 -5.429688 7.097656 -4.953125 6.765625 -4.546875 C 6.441406 -4.148438 6.007812 -3.878906 5.46875 -3.734375 L 7.359375 0 L 6.34375 0 L 4.53125 -3.609375 L 1.84375 -3.609375 L 1.84375 0 Z M 4.46875 -7.578125 L 1.84375 -7.578125 L 1.84375 -4.390625 L 4.46875 -4.390625 C 5.019531 -4.390625 5.46875 -4.535156 5.8125 -4.828125 C 6.164062 -5.117188 6.34375 -5.503906 6.34375 -5.984375 C 6.34375 -6.460938 6.164062 -6.847656 5.8125 -7.140625 C 5.46875 -7.429688 5.019531 -7.578125 4.46875 -7.578125 Z M 4.46875 -7.578125 "/></g></g></g><g fill="#000000" fill-opacity="1"><g transform="translate(209.331601, 242.182352)"><g><path d="M 0.046875 0 L 3.546875 -8.40625 L 4.65625 -8.40625 L 8.09375 0 L 7.09375 0 L 6.03125 -2.640625 L 2.078125 -2.640625 L 1.015625 0 Z M 2.40625 -3.4375 L 5.71875 -3.4375 L 4.0625 -7.53125 Z M 2.40625 -3.4375 "/></g></g></g><g fill="#000000" fill-opacity="1"><g transform="translate(222.271572, 242.182352)"><g><path d="M 0.921875 0 L 0.921875 -8.40625 L 1.84375 -8.40625 L 1.84375 -0.828125 L 6.859375 -0.828125 L 6.859375 0 Z M 0.921875 0 "/></g></g></g></svg>